<?xml version="1.0" encoding="UTF-8" standalone="no"?>
<!-- Created with Inkscape (http://www.inkscape.org/) -->

<svg
   xmlns:dc="http://purl.org/dc/elements/1.1/"
   xmlns:cc="http://creativecommons.org/ns#"
   xmlns:rdf="http://www.w3.org/1999/02/22-rdf-syntax-ns#"
   xmlns:svg="http://www.w3.org/2000/svg"
   xmlns="http://www.w3.org/2000/svg"
   xmlns:sodipodi="http://sodipodi.sourceforge.net/DTD/sodipodi-0.dtd"
   xmlns:inkscape="http://www.inkscape.org/namespaces/inkscape"
   version="1.1"
   id="svg885"
   width="653.617"
   height="653.617"
   viewBox="0 0 653.617 653.617"
   sodipodi:docname="raven2.svg"
   inkscape:version="0.92.3 (2405546, 2018-03-11)">
  <metadata
     id="metadata891">
    <rdf:RDF>
      <cc:Work
         rdf:about="">
        <dc:format>image/svg+xml</dc:format>
        <dc:type
           rdf:resource="http://purl.org/dc/dcmitype/StillImage" />
        <dc:title></dc:title>
      </cc:Work>
    </rdf:RDF>
  </metadata>
  <defs
     id="defs889" />
  <sodipodi:namedview
     pagecolor="#ffffff"
     bordercolor="#666666"
     borderopacity="1"
     objecttolerance="10"
     gridtolerance="10"
     guidetolerance="10"
     inkscape:pageopacity="0"
     inkscape:pageshadow="2"
     inkscape:window-width="1851"
     inkscape:window-height="1021"
     id="namedview887"
     showgrid="false"
     inkscape:zoom="1"
     inkscape:cx="311.49223"
     inkscape:cy="316.26529"
     inkscape:window-x="69"
     inkscape:window-y="31"
     inkscape:window-maximized="1"
     inkscape:current-layer="svg885" />
  <path
     style="fill:#000000;stroke-width:1.02127659"
     d="m 470.67396,637.53773 c -1.71733,-2.07647 -4.44154,-7.65191 -9.35923,-19.15477 -1.9211,-4.49362 -4.42544,-10.2383 -5.56518,-12.76596 -8.99153,-19.94077 -19.86415,-56.21428 -17.57233,-58.62523 0.51328,-0.53996 2.40619,0.24289 4.56063,1.88617 6.15436,4.69415 20.96644,9.10282 22.46063,6.68517 0.42712,-0.69108 -0.62456,-3.16835 -2.43623,-5.73859 -1.75329,-2.4874 -3.1878,-4.74804 -3.1878,-5.02363 0,-0.27559 -1.23349,-2.44513 -2.74111,-4.8212 -6.15096,-9.69421 -19.72697,-40.35723 -19.72697,-44.55568 0,-2.38116 2.59383,-2.15756 8.49751,0.7325 7.32347,3.58509 18.97757,6.81946 20.19287,5.60415 0.45974,-0.45974 -1.60761,-5.77743 -4.59411,-11.81709 -5.57585,-11.27613 -14.90743,-33.96473 -14.90573,-36.24146 10e-4,-1.74461 1.10153,-1.61808 7.35158,0.84546 6.53895,2.57742 18.56235,3.82516 19.66517,2.04077 -9.37491,-20.14195 -21.95432,-49.63739 -21.95432,-49.63739 l -26.17585,-67.88714 c -4.72894,-14.66309 -7.08361,-26.92606 -5.7372,-29.87899 0.71165,-1.56074 3.77472,-3.38977 9.60771,-5.73694 18.31805,-7.3711 42.07705,-17.1288 60.62343,-24.89772 25.16425,-10.54111 26.65391,-10.84914 63.34383,-13.09879 10.67234,-0.65437 19.56516,-1.33295 19.76184,-1.50796 0.91498,-0.81415 -2.08681,-3.42559 -14.52642,-12.63746 -14.51999,-10.75242 -28.58312,-19.44257 -36.8097,-22.74612 -14.16343,-5.68762 -40.40108,-11.17857 -89.41441,-18.71247 -9.25016,-1.42186 -17.88949,-3.28695 -19.19853,-4.14466 -1.30904,-0.85772 -6.24254,-4.99599 -10.96334,-9.19615 -19.82238,-17.63624 -36.08068,-27.94606 -47.37181,-30.03972 -15.65657,-2.90312 -50.89224,1.06184 -73.64784,8.28734 -19.68833,6.25157 -30.01441,11.57146 -36.84568,18.98253 -3.86779,4.19605 -15.23939,25.79866 -15.23939,28.95026 0,0.67324 -1.36422,3.81005 -3.0316,6.97067 -2.71087,5.13865 -8.6606,20.83555 -16.88807,44.5551 -3.65612,10.54049 -4.7899,11.52611 -12.96078,11.2671 -16.2634,-0.51555 -27.08157,-2.03645 -41.67274,-5.85868 -7.26557,-1.90325 -9.55647,-2.62611 -20.42553,-6.44501 -7.29027,-2.56148 -24.3249,-11.12893 -32.68085,-16.43663 -27.530159,-17.48711 -52.814935,-44.88688 -66.339404,-71.88848 -1.828733,-3.65107 -3.965377,-7.85814 -4.7481,-9.34906 -0.782722,-1.49092 -1.423132,-3.79238 -1.423132,-5.11434 0,-1.32196 -1.328761,-6.31024 -2.9528,-11.08505 -1.62404,-4.77483 -4.00356,-12.96601 -5.287823,-18.20262 -1.99107,-8.11866 -2.120251,-9.65705 -0.876987,-10.44386 0.801919,-0.5075 8.746155,-0.92977 17.653856,-0.93837 l 16.19582,-0.0156 -0.62479,-2.48936 c -0.343635,-1.36915 -1.981688,-5.42094 -3.640118,-9.00399 C 43.599458,106.40497 34.88241,76.774601 36.23121,74.592197 c 0.41738,-0.675336 8.02725,-1.060284 20.960277,-1.060284 13.215407,0 20.53885,-0.378399 20.974783,-1.083756 0.575501,-0.931178 -1.197144,-6.156492 -4.656009,-13.724755 -3.84886,-8.421604 -9.58591,-30.19131 -9.01808,-34.219843 L 64.851062,21.957446 246.12765,21.63923 c 184.46836,-0.32382 197.51226,-0.114867 219.57446,3.517387 62.55589,10.29902 111.27733,40.373835 142.36138,87.876953 15.09079,23.062 26.48783,51.91221 28.19828,71.38053 0.53564,6.09668 1.57032,11.58061 2.43755,12.91935 2.45341,3.78735 3.61633,19.2826 3.16379,42.1559 -0.35921,18.15557 -0.74398,22.38716 -2.50733,27.57447 -1.14565,3.37021 -2.37251,9.80426 -2.72635,14.29787 -1.15476,14.66475 -5.92392,29.95248 -15.68169,50.26834 -12.42164,25.8621 -31.12021,49.05757 -54.34526,67.41499 -7.85925,6.21207 -23.37232,16.25025 -29.9906,19.40629 -2.0066,0.95688 -3.50551,2.43035 -3.50551,3.44602 0,0.9759 2.34542,6.29078 5.21205,11.81084 2.86662,5.52007 8.32681,16.01096 12.13376,23.31309 7.53376,14.45061 21.35542,41.3104 36.52459,70.97872 5.31309,10.39149 13.92651,27.16596 19.14094,37.2766 24.17313,46.87105 30.13759,58.91078 30.13759,60.83517 0,1.13897 1.17168,3.15674 2.60373,4.48392 1.43205,1.32718 2.69588,3.71801 2.80851,5.31294 l 0.20478,2.89988 -84.85771,0.26115 c -79.86195,0.24578 -84.94501,0.15559 -86.34065,-1.53191 z"
     id="path895"
     inkscape:connector-curvature="0"
     sodipodi:nodetypes="cccscccscsscscsccccsssccsscssscscsssscssscscccscsscsscsssscsssssssccssssscsc" />
</svg>
